<?xml version="1.0" encoding="UTF-8"?>
<svg width="673px" height="421px" viewBox="0 0 673 421" version="1.1" xmlns="http://www.w3.org/2000/svg" xmlns:xlink="http://www.w3.org/1999/xlink">
    <!-- Generator: Sketch 57 (83077) - https://sketch.com -->
    <title>编组 2</title>
    <desc>Created with Sketch.</desc>
    <defs>
        <linearGradient x1="52.7231666%" y1="106.85755%" x2="52.7231666%" y2="-6.17466439%" id="linearGradient-1">
            <stop stop-color="#112038" offset="0%"></stop>
            <stop stop-color="#25263D" offset="100%"></stop>
        </linearGradient>
        <polyline id="path-2" points="226.201999 92 450 93.1893806 432.553733 400 209 400 226.201999 93.1893806"></polyline>
        <filter x="-0.8%" y="-0.6%" width="101.7%" height="101.3%" filterUnits="objectBoundingBox" id="filter-3">
            <feGaussianBlur stdDeviation="1.5" in="SourceAlpha" result="shadowBlurInner1"></feGaussianBlur>
            <feOffset dx="0" dy="1" in="shadowBlurInner1" result="shadowOffsetInner1"></feOffset>
            <feComposite in="shadowOffsetInner1" in2="SourceAlpha" operator="arithmetic" k2="-1" k3="1" result="shadowInnerInner1"></feComposite>
            <feColorMatrix values="0 0 0 0 0.106051108   0 0 0 0 0.134241259   0 0 0 0 0.281957654  0 0 0 1 0" type="matrix" in="shadowInnerInner1"></feColorMatrix>
        </filter>
        <linearGradient x1="41.4313496%" y1="100%" x2="41.4313496%" y2="-20.5530294%" id="linearGradient-4">
            <stop stop-color="#FAA561" offset="0%"></stop>
            <stop stop-color="#F76B1C" offset="100%"></stop>
        </linearGradient>
        <linearGradient x1="99.4246199%" y1="50%" x2="0%" y2="50%" id="linearGradient-5">
            <stop stop-color="#FAA261" offset="0%"></stop>
            <stop stop-color="#F76B1C" offset="100%"></stop>
        </linearGradient>
    </defs>
    <g id="页面-1" stroke="none" stroke-width="1" fill="none" fill-rule="evenodd">
        <g id="登录" transform="translate(-258.000000, -242.000000)">
            <g id="编组-2" transform="translate(258.000000, 242.000000)">
                <g id="编组" transform="translate(59.000000, 53.000000)"></g>
                <g id="编组-8">
                    <polygon id="路径-9" fill="url(#linearGradient-1)" points="337 0 0.439355436 420 673 421"></polygon>
                    <g id="路径-3">
                        <use fill="#1E2D7F" fill-rule="evenodd" xlink:href="#path-2"></use>
                        <use fill="black" fill-opacity="1" filter="url(#filter-3)" xlink:href="#path-2"></use>
                    </g>
                    <path d="M306.237037,161.281529 L313.111111,161.281529 L313.111111,157.882803 L307.066667,157.882803 L306.276543,154.705732 C307.382716,152.969427 308.449383,150.789809 309.397531,148.129936 L306,148.129936 L306,144.768153 L310.503704,144.768153 C310.859259,143.549045 311.214815,142.292994 311.530864,141 L315.165432,141.812739 C314.888889,142.847134 314.612346,143.807643 314.335802,144.768153 L321.249383,144.768153 L321.249383,148.129936 L313.22963,148.129936 C312.360494,150.53121 311.451852,152.673885 310.464198,154.521019 L313.111111,154.521019 L313.111111,149.940127 L316.903704,149.940127 L316.903704,154.521019 L320.854321,154.521019 L320.854321,157.882803 L316.903704,157.882803 L316.903704,161.281529 L322,161.281529 L322,164.680255 L316.903704,164.680255 L316.903704,170 L313.111111,170 L313.111111,164.680255 L306.237037,164.680255 L306.237037,161.281529 Z M301.04,142 C302.72,144.306977 304.04,146.27907 305,147.990698 L301.88,150 C300.92,148.139535 299.6,146.055814 298,143.786047 L301.04,142 Z M315.971743,171.745 C318.081633,171.745 320.11617,171.706667 322,171.63 L320.982732,175.386667 L315.67033,175.386667 C314.540031,175.386667 313.409733,175.348333 312.279435,175.31 C310.621664,175.271667 309.076923,175.041667 307.720565,174.62 C306.43956,174.16 305.346939,173.431667 304.480377,172.435 C303.990581,171.898333 303.576138,171.668333 303.237049,171.668333 C302.747253,171.668333 301.767661,173.086667 300.260597,176 L298,172.971667 C299.394035,170.748333 300.599686,169.215 301.616954,168.448333 L301.616954,156.526667 L299.130298,156.526667 L299.130298,153 L305.196232,153 L305.196232,168.793333 C305.874411,169.675 306.77865,170.365 307.833595,170.901667 C308.963893,171.285 310.244898,171.553333 311.676609,171.668333 C313.10832,171.706667 314.540031,171.745 315.971743,171.745 Z M290.057576,141 L293.957576,141.792453 C293.721212,142.849057 293.484848,143.830189 293.248485,144.773585 L298.409091,144.773585 L298.409091,148.509434 L292.145455,148.509434 C291.672727,149.90566 291.160606,151.226415 290.609091,152.433962 L297.89697,152.433962 L297.89697,155.943396 L295.139394,155.943396 L295.139394,159.490566 L299,159.490566 L299,163.113208 L295.139394,163.113208 L295.139394,170.169811 C296.006061,169.641509 296.912121,169.037736 297.778788,168.320755 L298.487879,171.716981 C296.518182,173.037736 294.233333,174.132075 291.633333,175 L290.09697,171.754717 C290.806061,171.45283 291.2,170.962264 291.2,170.283019 L291.2,163.113208 L287.260606,163.113208 L287.260606,159.490566 L291.2,159.490566 L291.2,155.943396 L289.781818,155.943396 L289.781818,154.169811 L289.230303,155.226415 L286,153.264151 C287.930303,149.415094 289.269697,145.339623 290.057576,141 Z M347.63285,145.932243 L337.15942,145.932243 L337.15942,142 L359.188406,142 L359.188406,145.932243 L351.729469,145.932243 L351.729469,155.454439 L358.647343,155.454439 L358.647343,159.193925 L351.729469,159.193925 L351.729469,171.067757 L360,171.067757 L360,175 L336,175 L336,171.067757 L339.516908,171.067757 L339.516908,151.522196 L343.458937,151.522196 L343.458937,171.067757 L347.63285,171.067757 L347.63285,145.932243 Z M330.844156,141 C333.25974,142.798165 335.285714,144.559633 337,146.321101 L334.233766,149 C332.753247,147.275229 330.688312,145.440367 328,143.53211 L330.844156,141 Z M325,151 L333.906706,151 L333.906706,166.604377 C334.892128,165.675084 335.915452,164.707071 336.976676,163.622896 L338,167.882155 C335.688047,170.127946 333.22449,172.180135 330.64723,174 L329.131195,170.321549 C329.813411,169.779461 330.154519,169.082492 330.154519,168.23064 L330.154519,154.872054 L325,154.872054 L325,151 Z M378.400713,155.689503 L367.609988,155.689503 L367.609988,152.533702 L364.039239,152.533702 L364.039239,144.381215 L378.439952,144.381215 C378.086801,143.40442 377.694411,142.502762 377.262782,141.676243 L381.657551,141 C382.08918,142.014365 382.48157,143.141436 382.87396,144.381215 L396.921522,144.381215 L396.921522,152.458564 L393.507729,152.458564 L393.507729,155.689503 L382.560048,155.689503 L382.560048,160.949171 L392.212842,160.949171 L392.212842,164.630939 L382.560048,164.630939 L382.560048,171.355801 L389.662307,171.355801 C388.720571,169.965746 387.58264,168.462983 386.209275,166.847514 L389.309156,165.00663 C391.035672,166.922652 392.409037,168.61326 393.390012,170.040884 L391.388823,171.355801 L397,171.355801 L397,175 L364,175 L364,171.355801 L378.400713,171.355801 L378.400713,164.630939 L368.512485,164.630939 L368.512485,160.949171 L378.400713,160.949171 L378.400713,155.689503 Z M369,152 L393,152 L393,148 L369,148 L369,152 Z" id="链证宝" fill="url(#linearGradient-4)" fill-rule="nonzero"></path>
                    <polygon id="路径-4" fill="#3142A2" points="266.980056 208 265 218.754488 398.815007 219 401 208"></polygon>
                    <polygon id="路径-4" fill="#3142A2" points="265.980056 224 264 234.754488 397.815007 235 400 224"></polygon>
                    <polygon id="路径-4" fill="#192261" points="265.980056 206 264 216.754488 397.815007 217 400 206"></polygon>
                    <polygon id="路径-4" fill="#192261" points="263.980056 222 262 232.754488 395.815007 233 398 222"></polygon>
                    <polygon id="路径-4" fill="#3142A2" points="265.980056 241 264 251.754488 397.815007 252 400 241"></polygon>
                    <polygon id="路径-4" fill="#192261" points="263.980056 240 262 250.754488 395.815007 251 398 240"></polygon>
                    <polygon id="路径-5" fill="url(#linearGradient-5)" points="221.919298 111 287 111 277.261223 123.235514 282.988453 136 221 136"></polygon>
                    <text id="合同" font-family="PingFangSC-Regular, PingFang SC" font-size="10" font-weight="normal" fill="#FFFFFF">
                        <tspan x="241.5" y="125">合同</tspan>
                    </text>
                    <polygon id="路径-6" fill="#A84408" points="224 140 221 136 224 136"></polygon>
                    <polygon id="路径-7" fill="#3F6BDA" transform="translate(401.500000, 327.000000) scale(-1, 1) translate(-401.500000, -327.000000) " points="259 252 375.46201 252 396.367259 282.547554 536.132377 282.547554 544 402 282.836221 402"></polygon>
                    <circle id="椭圆形" fill="#507ADD" cx="270.5" cy="315.5" r="3.5"></circle>
                    <circle id="椭圆形" fill="#557FEB" cx="282.5" cy="315.5" r="3.5"></circle>
                    <circle id="椭圆形" fill="#557FEB" cx="296.5" cy="315.5" r="3.5"></circle>
                    <circle id="椭圆形" fill="#507ADD" cx="270.5" cy="327.5" r="3.5"></circle>
                    <circle id="椭圆形" fill="#557FEB" cx="282.5" cy="327.5" r="3.5"></circle>
                    <circle id="椭圆形" fill="#557FEB" cx="296.5" cy="327.5" r="3.5"></circle>
                    <circle id="椭圆形" fill="#507ADD" cx="270.5" cy="340.5" r="3.5"></circle>
                    <circle id="椭圆形" fill="#557FEB" cx="282.5" cy="340.5" r="3.5"></circle>
                    <circle id="椭圆形" fill="#557FEB" cx="296.5" cy="340.5" r="3.5"></circle>
                    <circle id="椭圆形" fill="#507ADD" cx="308.5" cy="315.5" r="3.5"></circle>
                    <circle id="椭圆形" fill="#557FEB" cx="321.5" cy="315.5" r="3.5"></circle>
                    <circle id="椭圆形" fill="#557FEB" cx="335.5" cy="315.5" r="3.5"></circle>
                    <circle id="椭圆形" fill="#507ADD" cx="308.5" cy="327.5" r="3.5"></circle>
                    <circle id="椭圆形" fill="#557FEB" cx="321.5" cy="327.5" r="3.5"></circle>
                    <circle id="椭圆形" fill="#557FEB" cx="335.5" cy="327.5" r="3.5"></circle>
                    <circle id="椭圆形" fill="#507ADD" cx="308.5" cy="340.5" r="3.5"></circle>
                    <circle id="椭圆形" fill="#557FEB" cx="321.5" cy="340.5" r="3.5"></circle>
                    <circle id="椭圆形" fill="#557FEB" cx="335.5" cy="340.5" r="3.5"></circle>
                    <circle id="椭圆形" fill="#507ADD" cx="270.5" cy="352.5" r="3.5"></circle>
                    <circle id="椭圆形" fill="#557FEB" cx="282.5" cy="352.5" r="3.5"></circle>
                    <circle id="椭圆形" fill="#557FEB" cx="296.5" cy="352.5" r="3.5"></circle>
                    <circle id="椭圆形" fill="#507ADD" cx="270.5" cy="364.5" r="3.5"></circle>
                    <circle id="椭圆形" fill="#557FEB" cx="282.5" cy="364.5" r="3.5"></circle>
                    <circle id="椭圆形" fill="#557FEB" cx="296.5" cy="364.5" r="3.5"></circle>
                    <circle id="椭圆形" fill="#507ADD" cx="270.5" cy="377.5" r="3.5"></circle>
                    <circle id="椭圆形" fill="#557FEB" cx="282.5" cy="377.5" r="3.5"></circle>
                    <circle id="椭圆形" fill="#557FEB" cx="296.5" cy="377.5" r="3.5"></circle>
                    <circle id="椭圆形" fill="#507ADD" cx="308.5" cy="352.5" r="3.5"></circle>
                    <circle id="椭圆形" fill="#557FEB" cx="321.5" cy="352.5" r="3.5"></circle>
                    <circle id="椭圆形" fill="#557FEB" cx="335.5" cy="352.5" r="3.5"></circle>
                    <circle id="椭圆形" fill="#507ADD" cx="308.5" cy="364.5" r="3.5"></circle>
                    <circle id="椭圆形" fill="#557FEB" cx="321.5" cy="364.5" r="3.5"></circle>
                    <circle id="椭圆形" fill="#557FEB" cx="335.5" cy="364.5" r="3.5"></circle>
                    <circle id="椭圆形" fill="#507ADD" cx="308.5" cy="377.5" r="3.5"></circle>
                    <circle id="椭圆形" fill="#557FEB" cx="321.5" cy="377.5" r="3.5"></circle>
                    <circle id="椭圆形" fill="#557FEB" cx="335.5" cy="377.5" r="3.5"></circle>
                    <circle id="椭圆形" fill="#507ADD" cx="347.5" cy="315.5" r="3.5"></circle>
                    <circle id="椭圆形" fill="#557FEB" cx="359.5" cy="315.5" r="3.5"></circle>
                    <circle id="椭圆形" fill="#557FEB" cx="373.5" cy="315.5" r="3.5"></circle>
                    <circle id="椭圆形" fill="#507ADD" cx="347.5" cy="327.5" r="3.5"></circle>
                    <circle id="椭圆形" fill="#557FEB" cx="359.5" cy="327.5" r="3.5"></circle>
                    <circle id="椭圆形" fill="#557FEB" cx="373.5" cy="327.5" r="3.5"></circle>
                    <circle id="椭圆形" fill="#507ADD" cx="347.5" cy="340.5" r="3.5"></circle>
                    <circle id="椭圆形" fill="#557FEB" cx="359.5" cy="340.5" r="3.5"></circle>
                    <circle id="椭圆形" fill="#557FEB" cx="373.5" cy="340.5" r="3.5"></circle>
                    <circle id="椭圆形" fill="#507ADD" cx="385.5" cy="315.5" r="3.5"></circle>
                    <circle id="椭圆形" fill="#557FEB" cx="398.5" cy="315.5" r="3.5"></circle>
                    <circle id="椭圆形" fill="#557FEB" cx="412.5" cy="315.5" r="3.5"></circle>
                    <circle id="椭圆形" fill="#507ADD" cx="385.5" cy="327.5" r="3.5"></circle>
                    <circle id="椭圆形" fill="#557FEB" cx="398.5" cy="327.5" r="3.5"></circle>
                    <circle id="椭圆形" fill="#557FEB" cx="412.5" cy="327.5" r="3.5"></circle>
                    <circle id="椭圆形" fill="#507ADD" cx="385.5" cy="340.5" r="3.5"></circle>
                    <circle id="椭圆形" fill="#557FEB" cx="398.5" cy="340.5" r="3.5"></circle>
                    <circle id="椭圆形" fill="#557FEB" cx="412.5" cy="340.5" r="3.5"></circle>
                    <circle id="椭圆形" fill="#507ADD" cx="347.5" cy="352.5" r="3.5"></circle>
                    <circle id="椭圆形" fill="#557FEB" cx="359.5" cy="352.5" r="3.5"></circle>
                    <circle id="椭圆形" fill="#557FEB" cx="373.5" cy="352.5" r="3.5"></circle>
                    <circle id="椭圆形" fill="#507ADD" cx="347.5" cy="364.5" r="3.5"></circle>
                    <circle id="椭圆形" fill="#557FEB" cx="359.5" cy="364.5" r="3.5"></circle>
                    <circle id="椭圆形" fill="#557FEB" cx="373.5" cy="364.5" r="3.5"></circle>
                    <circle id="椭圆形" fill="#507ADD" cx="347.5" cy="377.5" r="3.5"></circle>
                    <circle id="椭圆形" fill="#557FEB" cx="359.5" cy="377.5" r="3.5"></circle>
                    <circle id="椭圆形" fill="#557FEB" cx="373.5" cy="377.5" r="3.5"></circle>
                    <circle id="椭圆形" fill="#507ADD" cx="385.5" cy="352.5" r="3.5"></circle>
                    <circle id="椭圆形" fill="#557FEB" cx="398.5" cy="352.5" r="3.5"></circle>
                    <circle id="椭圆形" fill="#557FEB" cx="412.5" cy="352.5" r="3.5"></circle>
                    <circle id="椭圆形" fill="#507ADD" cx="385.5" cy="364.5" r="3.5"></circle>
                    <circle id="椭圆形" fill="#557FEB" cx="398.5" cy="364.5" r="3.5"></circle>
                    <circle id="椭圆形" fill="#557FEB" cx="412.5" cy="364.5" r="3.5"></circle>
                    <circle id="椭圆形" fill="#507ADD" cx="385.5" cy="377.5" r="3.5"></circle>
                    <circle id="椭圆形" fill="#557FEB" cx="398.5" cy="377.5" r="3.5"></circle>
                    <circle id="椭圆形" fill="#557FEB" cx="412.5" cy="377.5" r="3.5"></circle>
                    <g id="编组-9" transform="translate(431.000000, 268.000000)" fill-rule="nonzero">
                        <path d="M66.5745527,15.1754677 C60.6618854,7.21324807 51.9907729,2.02574135 42.215083,0.614256964 C41.2076509,0.458631763 40.2002187,0.374183979 39.2047798,0.300593767 C30.5096808,-0.229014477 21.8505615,2.37680285 14.8225229,7.6716789 C6.90698453,13.6433436 1.78707038,22.328195 0.383861302,32.1615362 C-0.791476215,40.3891631 0.743658501,48.5444063 4.83215401,55.7224679 C5.57573489,57.0736324 6.44044749,58.3886051 7.37472088,59.6432578 C8.34737265,60.9461665 9.40157844,62.1887553 10.5169498,63.3589603 C12.6769323,65.6028586 15.1103607,67.5451576 17.7488735,69.184651 C22.0304601,71.8037387 26.7438034,73.491488 31.7569778,74.2032622 C32.7404234,74.3492362 33.7478556,74.4578119 34.7432945,74.5301957 C53.8125461,75.6883368 70.8549401,61.7182605 73.5426252,42.6825237 C74.9698207,32.8986447 72.4860207,23.1256233 66.5745527,15.1754677 Z M67.1069501,41.7663622 C64.8730684,57.4479367 50.8322085,68.9509599 35.1329511,67.9783661 C34.3198707,67.9411434 33.4972387,67.8450847 32.6853523,67.7370187 C24.9843704,66.6095303 18.0594565,62.6218957 13.0448637,56.3300541 L12.578029,55.7296876 C7.73058928,49.1748855 5.68893363,41.141981 6.83512627,33.0850618 C7.96937941,25.0041279 12.1959648,17.8489593 18.726875,12.9487675 C24.5055962,8.57689819 31.6334817,6.41677932 38.8091253,6.84904324 C39.6210117,6.89587183 40.4687167,6.99193048 41.2794092,7.09999646 C49.3385762,8.26590831 56.4545223,12.5285109 61.3616595,19.1205357 C66.1983537,25.6525238 68.2400093,33.6854283 67.1069501,41.7663622 Z" id="形状" fill="#00D2E3" transform="translate(36.968110, 37.415249) scale(-1, 1) translate(-36.968110, -37.415249) "></path>
                        <polygon id="矩形" fill="#212D7C" transform="translate(88.019309, 80.561040) scale(-1, 1) translate(-88.019309, -80.561040) " points="103.173989 58.4288865 112.664716 71.6844531 72.8646291 102.693194 63.3739026 89.4376279"></polygon>
                    </g>
                </g>
                <g id="编组" transform="translate(146.000000, 279.000000)" fill="#354FD2" fill-rule="nonzero">
                    <path d="M86.562458,46.6249297 L110.084666,46.6249297 C113.66409,46.6249297 116.581952,49.456904 116.704496,52.9971311 L116.708503,53.2289978 L116.708503,93.8328014 C116.708503,97.401542 113.868051,100.310696 110.317227,100.432875 L110.084666,100.43687 L86.562458,100.43687 C82.9817543,100.43687 80.0651175,97.6036459 79.9438521,94.0645883 L79.9399286,93.8328014 L79.9399286,53.2289978 C79.9399286,49.6602571 82.7791277,46.7511029 86.329899,46.6289247 L86.562458,46.6249297 L110.084666,46.6249297 Z M52.5360348,1.85476274 L53.0678698,2.254825 C54.3052611,3.18727143 55.039063,4.63354148 55.039063,6.18022885 L55.0394617,6.2108122 C55.0474813,6.82776413 55.1737895,16.6286176 55.1737895,21.911839 C55.1737895,35.6377113 78.5390346,51.5245118 78.5390346,51.5245118 C79.3618693,52.1537936 79.8679411,53.1091172 79.9306989,54.1370713 L79.9373154,54.3583665 L79.9373154,91.8466253 C79.9373154,93.1278211 79.248198,94.3060166 78.1424499,94.9409967 L77.9543475,95.0417214 L77.8654019,95.0808451 C72.2349161,97.6223438 66.1410343,98.9815255 59.9660973,99.0753682 L59.279679,99.0805838 L16.8107333,99.0805838 C12.5151802,99.0805838 8.03257963,95.5425038 8.03257963,91.0732816 C8.03257963,88.3385401 8.87233148,86.4397401 9.52372778,85.3794898 C9.8481179,84.8513209 9.72385556,84.1614409 9.20587778,83.8197613 C7.42042407,82.6356195 5.04505123,79.9347852 5.04505123,76.7357766 C5.04505123,74.0505918 6.18957284,72.3317604 6.9076784,71.5166849 C7.1836716,71.2036959 7.12219444,70.7316041 6.79388025,70.4746923 C5.54079259,69.490081 2.99014444,67.0722409 2.99014444,63.7023926 C2.99014444,61.0758931 4.27985679,59.2866393 5.34328086,58.2563838 C5.86910679,57.7464725 5.72260802,56.8857527 5.06859568,56.5532019 C3.24390123,55.625972 0.563758642,53.4702602 0.563758642,48.8041157 C0.563758642,47.8664527 0.65793642,47.027903 0.824055556,46.28325 C1.56847732,42.9210711 4.56279425,40.540672 7.99640609,40.4292257 L8.2484037,40.425139 L38.301579,40.425139 C38.6540917,40.425139 38.9285679,40.1347457 38.9214904,39.7960448 L38.9124265,39.702656 L35.9262062,22.4660904 C35.6214364,20.7042231 35.6384407,18.8888868 36.0491605,17.1452772 C37.7116599,10.0951997 40.8836198,4.57616016 42.0974667,2.63432418 C42.4283969,2.10615522 42.8953617,1.67840357 43.4473481,1.38367225 C48.1220232,-1.09691909 50.4393884,0.293464802 52.5360348,1.85476274 Z" id="形状结合"></path>
                </g>
                <g id="编组" transform="translate(153.000000, 180.000000)" fill-rule="nonzero">
                    <path d="M69.5482568,184.729698 C66.8215184,184.729698 64.1373853,183.470224 62.4065455,181.079902 L31.8266006,138.959861 C29.4513559,135.685227 29.5738461,131.199354 32.1408146,128.064067 L72.104574,79.2286153 C75.2094343,75.4341136 80.7747499,74.898167 84.5399922,78.0120166 C88.3052344,81.1312256 88.8484518,86.7372268 85.7489172,90.5263691 L50.1415484,134.039871 L76.673991,170.591427 C79.5498479,174.557432 78.6924165,180.115198 74.7514275,183.014669 C73.1803575,184.177673 71.3589815,184.729698 69.5482568,184.729698 Z" id="路径" fill="#FD847F"></path>
                    <path d="M128.01794,184.729698 C126.202757,184.729698 124.371557,184.172209 122.79128,183.014347 C118.845925,180.114331 117.991721,174.55016 120.879998,170.58877 L147.595229,133.933856 L112.044325,90.5247465 C108.937158,86.7348921 109.481713,81.1331979 113.261566,78.0134026 C117.03608,74.8882469 122.620439,75.4457361 125.722267,79.23023 L165.645628,127.96765 C168.213579,131.108887 168.341709,135.595603 165.955277,138.870852 L135.177238,181.089937 C133.436797,183.464626 130.746055,184.729698 128.01794,184.729698 Z" id="路径" fill="#FD847F"></path>
                    <path d="M74.6619718,25.6736379 C74.6619718,39.7154028 86.0988814,51.0954484 100.204225,51.0954484 C114.309569,51.0954484 125.746479,39.71009 125.746479,25.6736379 C125.746479,11.6265601 114.304232,5.24055881 100.204225,5.24055881 C86.0935446,5.24587162 74.6619718,11.6318729 74.6619718,25.6736379 Z" id="路径" fill="#2B46F2"></path>
                    <polygon id="路径" fill="#F0C2AE" points="90.3802817 55.5820747 90.447454 79.8042557 90.4978332 95.6401983 110.028169 95.5976285 109.042976 56.8751305 108.763091 45.8548896"></polygon>
                    <path d="M70.5022887,94.4604199 C70.5664394,86.8860063 77.1258458,79.5621188 83.9258173,76.0387638 C94.0936993,70.7617269 109.789231,74.4343314 114.787638,77.4033309 C123.298294,82.4511632 128.366197,92.7120683 127.772803,103.260812 L128.366197,159.837044 L68.1126761,159.837044 C68.1126761,159.837044 70.3632956,111.677419 70.5022887,94.4604199 Z" id="路径" fill="#FD847F"></path>
                    <path d="M112.647887,75.934941 C105.638227,73.097755 95.74996,72.1649815 87.7605634,75.4588378 L93.6793831,81.1526426 C97.4165219,84.7477071 103.481797,84.7477071 107.229036,81.1526426 C109.031953,79.4134087 110.83992,77.6741749 112.647887,75.934941 Z" id="路径" fill="#F99AB6"></path>
                    <path d="M94.5871231,10.4811176 L104.51606,10.4811176 C113.290723,10.4811176 121.507397,17.4301987 120.407829,25.8506008 C119.609138,31.9846335 120.407829,36.5891274 120.407829,45.6922648 C120.407829,53.3240812 111.173644,68.1272645 103.279729,68.1272645 L95.8234535,68.1272645 C87.9350091,68.1272645 78.6898835,53.3240812 78.6898835,45.6922648 C78.6898835,36.5891274 79.4885748,31.9846335 78.6898835,25.8506008 C77.5957858,17.4301987 85.806989,10.4811176 94.5871231,10.4811176 Z" id="路径" fill="#FFE4D8"></path>
                    <path d="M107.408451,53.7157278 C106.714132,57.4444219 103.466856,60.2664263 99.5519662,60.2664263 C95.6370763,60.2664263 92.3898006,57.4497869 91.6901408,53.7157278 L107.408451,53.7157278 Z" id="路径" fill="#FFFEFF"></path>
                    <path d="M108.683726,213.552772 L89.105006,213.552772 C75.0306041,213.552772 64.4815615,200.95455 67.2445347,187.456833 L68.4232591,159.837044 L129.365473,159.837044 L130.544198,187.456833 C133.307171,200.95455 122.758128,213.552772 108.683726,213.552772 Z" id="路径" fill="#566CD3"></path>
                    <path d="M11.0834342,183.137187 L93.2751969,175.55872 L95.6197183,199.368642 L13.4279556,206.947109 C6.69346485,207.57219 0.72267923,202.793675 0.0764671905,196.284562 L0.055104809,196.052094 C-0.58042604,189.537815 4.35428408,183.762269 11.0834342,183.137187 Z" id="路径" fill="#2C409C"></path>
                    <path d="M174.915787,183.137187 L92.7247814,175.55872 L90.3802817,199.368642 L172.571287,206.947109 C179.305716,207.57219 185.276446,202.793675 185.917312,196.284562 L185.944014,196.052094 C186.58488,189.537815 181.650215,183.762269 174.915787,183.137187 Z" id="路径" fill="#2C409C"></path>
                    <path d="M130.26563,199.141235 L66.2132428,199.141235 C62.9223706,199.141235 60.2535211,196.504816 60.2535211,193.253932 L60.2535211,151.31281 C60.2535211,148.061926 62.9223706,145.425507 66.2132428,145.425507 L130.26563,145.425507 C133.556503,145.425507 136.225352,148.061926 136.225352,151.31281 L136.225352,193.253932 C136.225352,196.504816 133.556503,199.141235 130.26563,199.141235 Z" id="路径" fill="#FFFFFF"></path>
                    <path d="M130.26563,201.761514 L66.2132428,201.761514 C62.9223706,201.761514 60.2535211,199.125095 60.2535211,195.874212 L60.2535211,153.933089 C60.2535211,150.682206 62.9223706,148.045786 66.2132428,148.045786 L130.26563,148.045786 C133.556503,148.045786 136.225352,150.682206 136.225352,153.933089 L136.225352,195.874212 C136.225352,199.130347 133.556503,201.761514 130.26563,201.761514 Z" id="路径" fill="#3650D2"></path>
                    <path d="M107.992595,179.489139 L89.7906218,179.489139 C87.2202826,179.489139 85.1408451,177.455925 85.1408451,174.95475 L85.1408451,174.85793 C85.1408451,172.351375 87.2202826,170.318161 89.7906218,170.318161 L107.992595,170.318161 C110.56845,170.318161 112.647887,172.351375 112.647887,174.85793 L112.647887,174.95475 C112.647887,177.455925 110.56845,179.489139 107.992595,179.489139 Z" id="路径" fill="#FFFFFF"></path>
                    <g transform="translate(60.253521, 193.900676)">
                        <path d="M7.46735111,30.0175387 L31.5669715,28.580295 L31.4917274,29.0237568 C31.2606204,30.4182573 32.3624095,31.6738419 33.7866734,31.6310986 C34.8723387,31.604384 35.7806429,30.8189758 35.958004,29.7503931 L36.1944856,28.3024635 L38.9086489,28.1368332 L38.7957827,28.826069 C38.5646757,30.2259124 39.6664648,31.4761541 41.0907287,31.4440966 C42.176394,31.4120392 43.0846982,30.621288 43.2566848,29.5527053 L43.5415376,27.8643446 L58.6978555,26.9560493 C59.0257049,26.8438481 59.332056,26.6728749 59.6330325,26.4751871 C60.2242364,26.3469572 60.8208149,26.1920127 61.4066442,25.9836391 C68.3828501,23.4671268 71.9945684,15.8214176 69.4685154,8.88097304 C66.9424624,1.95121426 59.2460627,-1.6392236 52.2698568,0.866602824 C52.216111,0.887974478 52.1677398,0.914689045 52.1247431,0.930717786 C52.0978702,0.941403613 52.0709973,0.941403613 52.0441244,0.95208944 L4.19423139,18.1669567 C3.43104091,18.4394452 2.76996747,18.9096216 2.19488732,19.5080279 C-1.71780751,23.579328 1.81866667,30.3648281 7.46735111,30.0175387 Z" id="路径" fill="#FFFFFF"></path>
                        <g id="_x38_._Right_shoe_30_" transform="translate(0.571764, 3.175240)">
                            <ellipse id="椭圆形" fill="#F7B75D" cx="56.3578545" cy="13.5224151" rx="13.4310775" ry="13.3519408"></ellipse>
                            <path d="M3.70308618,18.2562364 L51.5529792,1.04671214 C56.6104598,-0.769878444 62.1946492,1.8267775 64.0273813,6.859802 L64.0273813,6.859802 C65.8601133,11.8874836 63.2695654,25.2287385 58.2120848,27.050672 L6.98158048,30.1068185 C1.32752146,30.4434221 -2.20357814,23.6686078 1.70374212,19.5973077 C2.28419685,18.9989014 2.95064487,18.528725 3.70308618,18.2562364 Z" id="路径" fill="#F7B75D"></path>
                            <path d="M41.3251519,21.9375038 L41.3251519,21.9375038 C42.7494158,21.8947605 43.8512049,23.1556881 43.6200979,24.5448456 L42.7762887,29.647328 C42.6043021,30.7105677 41.6906234,31.5066619 40.6103327,31.5333764 L40.6103327,31.5333764 C39.1860687,31.5707768 38.0842797,30.3151922 38.3153867,28.9206917 L39.1591958,23.8182094 C39.3311824,22.7496267 40.2448612,21.9642184 41.3251519,21.9375038 Z" id="路径" fill="#FFFFFF"></path>
                            <path d="M34.0264712,22.1245058 L34.0264712,22.1245058 C35.4507351,22.0924483 36.5525241,23.348033 36.3214172,24.7425334 L35.477608,29.8450158 C35.3056214,30.9082555 34.3919427,31.6990067 33.3116519,31.7257213 L33.3116519,31.7257213 C31.887388,31.7684646 30.7855989,30.5021941 31.0167059,29.1183795 L31.8605151,24.0158972 C32.0325017,22.9526574 32.9461804,22.1565633 34.0264712,22.1245058 Z" id="路径" fill="#FFFFFF"></path>
                        </g>
                    </g>
                    <path d="M170.870851,187.696375 L116.034822,202.732005 C110.76588,204.177532 107.63827,209.701702 109.062308,215.070035 L109.11505,215.268862 C110.533814,220.642568 115.955709,223.823802 121.224651,222.372901 L176.06068,207.342645 C181.329622,205.897118 184.457232,200.372948 183.038468,194.999242 L182.985726,194.811162 C181.561688,189.437456 176.139793,186.256222 170.870851,187.696375 Z" id="路径" fill="#FFE4D8"></path>
                    <g transform="translate(58.357538, 193.900676)">
                        <path d="M62.9818571,30.0175387 L38.8822368,28.580295 L38.9574809,29.0237568 C39.1885879,30.4182573 38.0867988,31.6738419 36.6625349,31.6310986 C35.5768696,31.604384 34.6685654,30.8189758 34.4912042,29.7503931 L34.2547227,28.3024635 L31.5405594,28.1368332 L31.6534256,28.826069 C31.8845325,30.2259124 30.7827435,31.4761541 29.3584795,31.4440966 C28.2781888,31.4120392 27.3645101,30.621288 27.1871489,29.5527053 L26.9076707,27.8643446 L11.7459782,26.9560493 C11.4235034,26.8438481 11.1171523,26.6728749 10.8161757,26.4751871 C10.2195973,26.3469572 9.62839336,26.1920127 9.04256405,25.9836391 C2.06635815,23.4671268 -1.54536016,15.8214176 0.980692828,8.88097304 C3.50674581,1.95121426 11.2031455,-1.6392236 18.1793514,0.866602824 C18.2330973,0.887974478 18.2814685,0.914689045 18.3244651,0.930717786 C18.351338,0.941403613 18.3782109,0.941403613 18.4050838,0.95208944 L66.2549769,18.1669567 C67.0181673,18.4394452 67.6792408,18.9096216 68.2596955,19.5080279 C72.1670158,23.579328 68.6305416,30.3648281 62.9818571,30.0175387 Z" id="路径" fill="#FFFFFF"></path>
                        <g id="_x38_._Right_shoe_29_" transform="translate(0.000000, 3.175240)">
                            <ellipse id="椭圆形" fill="#F7B75D" cx="13.5249645" cy="13.5224151" rx="13.4310775" ry="13.3519408"></ellipse>
                            <path d="M66.1743582,18.2562364 L18.3190905,1.04671214 C13.2669846,-0.769878444 7.68279511,1.8267775 5.85006305,6.859802 L5.85006305,6.859802 C4.01733099,11.8874836 6.60787894,25.2287385 11.6653595,27.050672 L62.8958639,30.1068185 C68.5499229,30.4434221 72.0810225,23.6686078 68.1737022,19.5973077 C67.5932475,18.9989014 66.932174,18.528725 66.1743582,18.2562364 Z" id="路径" fill="#F7B75D"></path>
                            <path d="M28.5522924,21.9375038 L28.5522924,21.9375038 C27.1280285,21.8947605 26.0262394,23.1556881 26.2573464,24.5448456 L27.1011556,29.647328 C27.2731422,30.7105677 28.1868209,31.5066619 29.2671117,31.5333764 L29.2671117,31.5333764 C30.6913756,31.5707768 31.7931647,30.3151922 31.5620577,28.9206917 L30.7236231,23.8182094 C30.5462619,22.7496267 29.6325832,21.9642184 28.5522924,21.9375038 Z" id="路径" fill="#FFFFFF"></path>
                            <path d="M35.8563478,22.1245058 L35.8563478,22.1245058 C34.4320838,22.0924483 33.3302948,23.348033 33.5614017,24.7425334 L34.3998364,29.8450158 C34.5771975,30.9082555 35.4908763,31.6990067 36.571167,31.7257213 L36.571167,31.7257213 C37.9954309,31.7684646 39.09722,30.5021941 38.866113,29.1183795 L38.0223038,24.0158972 C37.8503172,22.9526574 36.9366385,22.1565633 35.8563478,22.1245058 Z" id="路径" fill="#FFFFFF"></path>
                        </g>
                    </g>
                    <path d="M17.7491609,187.696375 L72.5849306,202.732005 C77.853848,204.177532 80.9814436,209.701702 79.5574118,215.070035 L79.5046699,215.268862 C78.0859124,220.642568 72.6640435,223.823802 67.3951261,222.372901 L12.5593564,207.342645 C7.28516482,205.897118 4.16284342,200.372948 5.58160095,194.999242 L5.63434286,194.811162 C7.05837459,189.437456 12.4802435,186.256222 17.7491609,187.696375 Z" id="路径" fill="#FFE4D8"></path>
                    <path d="M103.573743,0 C126.149694,0 125.745998,29.2035074 125.745998,29.2035074 C102.083171,34.6663446 93,14.4398119 93,10.4884316 C93,10.4884316 95.473935,0 103.573743,0 Z" id="路径" fill="#2B46F2"></path>
                    <path d="M90.8407334,6.74839354 C72.1401174,3.96754672 76.3858658,31.4433529 76.3858658,31.4433529 C88.7312781,28.7716608 96.0311741,17.5339209 95.6017685,15.0493512 L90.8407334,6.74839354 Z" id="路径" fill="#2B46F2"></path>
                </g>
                <g id="XMLID_553_" transform="translate(423.000000, 121.000000)">
                    <g id="XMLID_558_" fill="#FFFFFF">
                        <path d="M23.1907895,0.366756757 C10.4389474,0.366756757 0.102039474,9.33054054 0.102039474,20.3891892 C0.102039474,27.0312162 3.82802632,32.9117568 9.56697368,36.5544595 L6.31407895,44.822027 L14.2855263,38.8668919 C17.0251316,39.8614865 20.03375,40.4147297 23.1907895,40.4147297 C35.9457237,40.4147297 46.2826316,31.4478378 46.2826316,20.3891892 C46.2826316,9.33054054 35.9457237,0.366756757 23.1907895,0.366756757 Z" id="路径"></path>
                    </g>
                    <g id="XMLID_554_" transform="translate(11.000000, 17.000000)" fill="#121F55">
                        <g id="XMLID_557_">
                            <ellipse id="椭圆形" cx="3.11684211" cy="3.32646192" rx="3.05052632" ry="3.13297297"></ellipse>
                        </g>
                        <g id="XMLID_556_" transform="translate(9.043062, 0.000000)">
                            <ellipse id="椭圆形" cx="3.91866029" cy="3.32646192" rx="3.05052632" ry="3.13297297"></ellipse>
                        </g>
                        <g id="XMLID_555_" transform="translate(19.329545, 0.000000)">
                            <ellipse id="椭圆形" cx="3.47705742" cy="3.32646192" rx="3.05052632" ry="3.13297297"></ellipse>
                        </g>
                    </g>
                </g>
                <g id="XMLID_523_" transform="translate(447.000000, 145.000000)">
                    <g id="XMLID_532_" fill="#566CD3">
                        <path d="M22.1799722,0.7584 C34.1539306,0.7584 43.8579167,9.06432 43.8579167,19.31136 C43.8579167,25.46592 40.3600694,30.91488 34.9725139,34.29024 L38.0262361,41.95104 L30.542875,36.43296 C27.9681111,37.35456 25.1466111,37.8672 22.1799722,37.8672 C10.2089167,37.8672 0.504930556,29.5584 0.504930556,19.31136 C0.504930556,9.06432 10.2089167,0.7584 22.1799722,0.7584 Z" id="路径"></path>
                    </g>
                    <g id="XMLID_524_" transform="translate(9.000000, 16.000000)" fill="#FFFFFF">
                        <g id="XMLID_527_" transform="translate(18.850000, 0.000000)">
                            <ellipse id="椭圆形" cx="3.80732857" cy="3.747" rx="2.90136786" ry="3.036"></ellipse>
                        </g>
                        <g id="XMLID_526_" transform="translate(10.249107, 0.000000)">
                            <ellipse id="椭圆形" cx="3.04471607" cy="3.747" rx="2.90136786" ry="3.036"></ellipse>
                        </g>
                        <g id="XMLID_525_">
                            <ellipse id="椭圆形" cx="3.93031786" cy="3.747" rx="2.90136786" ry="3.036"></ellipse>
                        </g>
                    </g>
                </g>
            </g>
        </g>
    </g>
</svg>