<?xml version="1.0" encoding="UTF-8"?>
<svg width="133px" height="48px" viewBox="0 0 133 48" version="1.1" xmlns="http://www.w3.org/2000/svg" xmlns:xlink="http://www.w3.org/1999/xlink">
    <!-- Generator: Sketch 57 (83077) - https://sketch.com -->
    <title>切片</title>
    <desc>Created with Sketch.</desc>
    <defs>
        <linearGradient x1="80.3906646%" y1="78.125%" x2="13.5274939%" y2="33.3594734%" id="linearGradient-1">
            <stop stop-color="#66C3F9" offset="0%"></stop>
            <stop stop-color="#492D7C" offset="100%"></stop>
        </linearGradient>
        <linearGradient x1="62.914586%" y1="9.90803603%" x2="50%" y2="100%" id="linearGradient-2">
            <stop stop-color="#C14786" offset="0%"></stop>
            <stop stop-color="#A2D2FF" offset="71.0546027%"></stop>
            <stop stop-color="#234084" offset="100%"></stop>
        </linearGradient>
        <linearGradient x1="19.3559529%" y1="39.5093446%" x2="73.8659545%" y2="63.9525826%" id="linearGradient-3">
            <stop stop-color="#24386F" offset="0%"></stop>
            <stop stop-color="#46A7E5" offset="100%"></stop>
        </linearGradient>
        <linearGradient x1="64.0654113%" y1="9.90803603%" x2="50%" y2="100%" id="linearGradient-4">
            <stop stop-color="#DF5299" offset="0%"></stop>
            <stop stop-color="#ACEBFF" offset="70.9089949%"></stop>
            <stop stop-color="#6A81FB" offset="100%"></stop>
        </linearGradient>
        <linearGradient x1="85.9121817%" y1="37.8048589%" x2="7.77291796%" y2="60.3899072%" id="linearGradient-5">
            <stop stop-color="#FB6967" offset="0%"></stop>
            <stop stop-color="#FBA5B2" offset="56.4453125%"></stop>
            <stop stop-color="#FB5F57" offset="100%"></stop>
        </linearGradient>
        <linearGradient x1="72.6288351%" y1="34.0254344%" x2="3.41856575%" y2="68.9349112%" id="linearGradient-6">
            <stop stop-color="#F95D88" offset="0%"></stop>
            <stop stop-color="#F4566D" offset="28.5655509%"></stop>
            <stop stop-color="#E75449" offset="100%"></stop>
        </linearGradient>
    </defs>
    <g id="页面-1" stroke="none" stroke-width="1" fill="none" fill-rule="evenodd">
        <g id="index" transform="translate(-50.000000, -13.000000)">
            <g id="top">
                <g id="链证宝" transform="translate(50.000000, 13.000000)">
                    <text font-family="PingFangSC-Semibold, PingFang SC" font-size="23" font-weight="500" fill="#FFFFFF">
                        <tspan x="51" y="30">链证宝</tspan>
                    </text>
                    <g id="编组-9">
                        <g transform="translate(27.000000, 26.000000) rotate(-148.000000) translate(-27.000000, -26.000000) translate(7.000000, 8.000000)">
                            <path d="M15.2917831,19.8764524 C20.4804621,27.6485418 24.6557317,31.5345865 27.8175917,31.5345865 C27.3081991,32.93423 25.1920657,34.0481853 21.4691917,34.8764524 C14.7688172,32.9945673 10.2182839,30.024096 7.81759175,25.9650386 C10.2575458,24.0433857 12.7489429,22.013857 15.2917831,19.8764524 Z" id="路径-15" fill="url(#linearGradient-1)"></path>
                            <path d="M27.8142981,10.2937369 C30.7176442,25.8757619 28.2852609,33.9791311 20.517148,34.6038446 C20.7505408,34.6923789 30.9345356,37.9805826 35.5029715,31.8107532 C39.1860091,26.6997895 40.3620969,19.4266339 39.0312348,9.99128634 C37.8306712,7.82003174 35.5543663,7.0649664 32.2023201,7.72609032 C29.5134857,8.31705795 28.0508117,9.17294013 27.8142981,10.2937369 Z" id="路径-14" fill="url(#linearGradient-2)"></path>
                            <path d="M26.946178,30.9467225 C26.7264898,31.5389829 26.4688763,31.877317 26.1733375,31.9617247 C21.0345831,33.4293852 15.3032059,31.292449 10.6656398,26.9392019 L16.3683539,21.3465331 C18.4580613,24.1183661 20.1414135,26.2906503 21.4184105,27.8633855 C22.6954076,29.4361207 24.5379967,30.4638997 26.946178,30.9467225 Z" id="路径-17" fill="url(#linearGradient-3)"></path>
                            <path d="M20.5173798,34.6038446 C23.5293197,34.4326527 25.7598809,33.0224027 27.2090635,30.3730945 C28.2299505,28.0670579 29.134329,24.2854665 28.9780895,19.7614034 C28.8383946,15.4409566 27.9602813,12.4078769 27.8142981,10.2937369 C27.9125444,9.86701012 30.3236024,9.14835703 32.9406069,9.0827057 C35.4828451,9.01892998 38.2202288,9.59863771 39.1670152,9.8326593 C36.94785,11.8737915 35.5587333,14.8299726 34.9996648,18.7012026 C33.996902,25.6447626 33.4927022,30.4816227 30.4067184,33.7470584 C27.9157513,35.6298109 24.6193051,35.9154063 20.5173798,34.6038446 Z" id="路径-10" fill="url(#linearGradient-4)"></path>
                            <path d="M12.9303474,18.0656264 C17.2025608,12.1281305 21.6933157,8.24021334 26.4026122,6.40187488 C33.7526765,5.26364516 37.9811816,6.63905612 39.0881275,10.5281078 C33.4788971,7.5175632 27.6589463,8.88931315 21.628275,14.6433576 C20.1600872,15.9560724 16.1658357,22.7585579 12.1057294,26.4907987 C10.1494948,28.6808271 3.89885428,28.9693859 0.279977122,23.5141502 C-0.0342009759,22.9487186 4.30838681,25.937429 8.06721348,22.9097197 C9.64110033,21.5749698 11.262145,19.9602721 12.9303474,18.0656264 Z" id="路径-11" fill="url(#linearGradient-5)"></path>
                            <path d="M0.279977122,23.5141502 C3.08440631,25.279647 5.91533295,24.8715508 8.77275704,22.2898617 C13.0588932,18.4173282 18.3210968,11.846491 20.4693382,10.2092137 C25.6579083,6.98197169 31.3159191,5.19270963 39.2573004,10.6395964 C39.4108014,7.27759732 39.1523168,-2.51462564 26.1859446,1.56935363 C19.1719221,3.7833092 13.3777929,11.277729 12.9997974,11.5115519 C12.7818334,11.6463815 9.98768646,15.4470943 3.80270117,21.3350407 C2.66451133,22.3323848 1.49026998,23.0587547 0.279977122,23.5141502 Z" id="路径-12" fill="url(#linearGradient-6)"></path>
                        </g>
                    </g>
                </g>
            </g>
        </g>
    </g>
</svg>