<?xml version="1.0" encoding="UTF-8"?>
<svg width="122px" height="32px" viewBox="0 0 122 32" version="1.1" xmlns="http://www.w3.org/2000/svg" xmlns:xlink="http://www.w3.org/1999/xlink">
    <!-- Generator: Sketch 57 (83077) - https://sketch.com -->
    <title>链证宝1</title>
    <desc>Created with Sketch.</desc>
    <defs>
        <linearGradient x1="80.3906646%" y1="69.341166%" x2="13.5274939%" y2="38.5565445%" id="linearGradient-1">
            <stop stop-color="#66C3F9" offset="0%"></stop>
            <stop stop-color="#492D7C" offset="100%"></stop>
        </linearGradient>
        <linearGradient x1="68.7797743%" y1="9.90803603%" x2="50%" y2="100%" id="linearGradient-2">
            <stop stop-color="#C14786" offset="0%"></stop>
            <stop stop-color="#A2D2FF" offset="71.0546027%"></stop>
            <stop stop-color="#234084" offset="100%"></stop>
        </linearGradient>
        <linearGradient x1="19.3559529%" y1="42.7857242%" x2="73.8659545%" y2="59.5949943%" id="linearGradient-3">
            <stop stop-color="#24386F" offset="0%"></stop>
            <stop stop-color="#46A7E5" offset="100%"></stop>
        </linearGradient>
        <linearGradient x1="70.4532495%" y1="9.90803603%" x2="50%" y2="100%" id="linearGradient-4">
            <stop stop-color="#DF5299" offset="0%"></stop>
            <stop stop-color="#ACEBFF" offset="70.9089949%"></stop>
            <stop stop-color="#6A81FB" offset="100%"></stop>
        </linearGradient>
        <linearGradient x1="85.9121817%" y1="41.6135734%" x2="7.77291796%" y2="57.1449927%" id="linearGradient-5">
            <stop stop-color="#FB6967" offset="0%"></stop>
            <stop stop-color="#FBA5B2" offset="56.4453125%"></stop>
            <stop stop-color="#FB5F57" offset="100%"></stop>
        </linearGradient>
        <linearGradient x1="72.6288351%" y1="39.0145165%" x2="3.41856575%" y2="63.0212715%" id="linearGradient-6">
            <stop stop-color="#F95D88" offset="0%"></stop>
            <stop stop-color="#F4566D" offset="28.5655509%"></stop>
            <stop stop-color="#E75449" offset="100%"></stop>
        </linearGradient>
    </defs>
    <g id="页面-1" stroke="none" stroke-width="1" fill="none" fill-rule="evenodd">
        <g id="logo" transform="translate(-351.000000, -102.000000)">
            <g id="链证宝1" transform="translate(345.000000, 94.000000)">
                <rect id="矩形" fill="#D8D8D8" opacity="0" x="0" y="0" width="133" height="48"></rect>
                <g id="编组" transform="translate(0.000000, 5.000000)">
                    <path d="M73.1195,22.0746923 L77.1215,22.0746923 L77.1215,19.9586923 L73.6025,19.9586923 L73.1425,17.9806923 C73.7865,16.8996923 74.4075,15.5426923 74.9595,13.8866923 L72.9815,13.8866923 L72.9815,11.7936923 L75.6035,11.7936923 C75.8105,11.0346923 76.0175,10.2526923 76.2015,9.44769231 L78.3175,9.95369231 C78.1565,10.5976923 77.9955,11.1956923 77.8345,11.7936923 L81.8595,11.7936923 L81.8595,13.8866923 L77.1905,13.8866923 C76.6845,15.3816923 76.1555,16.7156923 75.5805,17.8656923 L77.1215,17.8656923 L77.1215,15.0136923 L79.3295,15.0136923 L79.3295,17.8656923 L81.6295,17.8656923 L81.6295,19.9586923 L79.3295,19.9586923 L79.3295,22.0746923 L82.2965,22.0746923 L82.2965,24.1906923 L79.3295,24.1906923 L79.3295,27.5026923 L77.1215,27.5026923 L77.1215,24.1906923 L73.1195,24.1906923 L73.1195,22.0746923 Z M70.1525,9.76969231 C71.1185,11.1956923 71.8775,12.4146923 72.4295,13.4726923 L70.6355,14.7146923 C70.0835,13.5646923 69.3245,12.2766923 68.4045,10.8736923 L70.1525,9.76969231 Z M78.8465,28.1696923 C80.1345,28.1696923 81.3765,28.1466923 82.5265,28.1006923 L81.9055,30.3546923 L78.6625,30.3546923 C77.9725,30.3546923 77.2825,30.3316923 76.5925,30.3086923 C75.5805,30.2856923 74.6375,30.1476923 73.8095,29.8946923 C73.0275,29.6186923 72.3605,29.1816923 71.8315,28.5836923 C71.5325,28.2616923 71.2795,28.1236923 71.0725,28.1236923 C70.7735,28.1236923 70.1755,28.9746923 69.2555,30.7226923 L67.8755,28.9056923 C68.7265,27.5716923 69.4625,26.6516923 70.0835,26.1916923 L70.0835,19.0386923 L68.5655,19.0386923 L68.5655,16.9226923 L72.2685,16.9226923 L72.2685,26.3986923 C72.6825,26.9276923 73.2345,27.3416923 73.8785,27.6636923 C74.5685,27.8936923 75.3505,28.0546923 76.2245,28.1236923 C77.0985,28.1466923 77.9725,28.1696923 78.8465,28.1696923 Z M63.2985,9.49369231 L65.5755,9.97669231 C65.4375,10.6206923 65.2995,11.2186923 65.1615,11.7936923 L68.1745,11.7936923 L68.1745,14.0706923 L64.5175,14.0706923 C64.2415,14.9216923 63.9425,15.7266923 63.6205,16.4626923 L67.8755,16.4626923 L67.8755,18.6016923 L66.2655,18.6016923 L66.2655,20.7636923 L68.5195,20.7636923 L68.5195,22.9716923 L66.2655,22.9716923 L66.2655,27.2726923 C66.7715,26.9506923 67.3005,26.5826923 67.8065,26.1456923 L68.2205,28.2156923 C67.0705,29.0206923 65.7365,29.6876923 64.2185,30.2166923 L63.3215,28.2386923 C63.7355,28.0546923 63.9655,27.7556923 63.9655,27.3416923 L63.9655,22.9716923 L61.6655,22.9716923 L61.6655,20.7636923 L63.9655,20.7636923 L63.9655,18.6016923 L63.1375,18.6016923 L63.1375,17.5206923 L62.8155,18.1646923 L60.9295,16.9686923 C62.0565,14.6226923 62.8385,12.1386923 63.2985,9.49369231 Z M98.1895,12.5986923 L91.9565,12.5986923 L91.9565,10.2526923 L105.0665,10.2526923 L105.0665,12.5986923 L100.6275,12.5986923 L100.6275,18.2796923 L104.7445,18.2796923 L104.7445,20.5106923 L100.6275,20.5106923 L100.6275,27.5946923 L105.5495,27.5946923 L105.5495,29.9406923 L91.2665,29.9406923 L91.2665,27.5946923 L93.3595,27.5946923 L93.3595,15.9336923 L95.7055,15.9336923 L95.7055,27.5946923 L98.1895,27.5946923 L98.1895,12.5986923 Z M87.4255,9.58569231 C88.8515,10.7126923 90.0475,11.8166923 91.0595,12.9206923 L89.4265,14.5996923 C88.5525,13.5186923 87.3335,12.3686923 85.7465,11.1726923 L87.4255,9.58569231 Z M84.1365,16.2096923 L89.5415,16.2096923 L89.5415,25.4786923 C90.1395,24.9266923 90.7605,24.3516923 91.4045,23.7076923 L92.0255,26.2376923 C90.6225,27.5716923 89.1275,28.7906923 87.5635,29.8716923 L86.6435,27.6866923 C87.0575,27.3646923 87.2645,26.9506923 87.2645,26.4446923 L87.2645,18.5096923 L84.1365,18.5096923 L84.1365,16.2096923 Z M116.5205,18.4406923 L110.1955,18.4406923 L110.1955,16.5086923 L108.1025,16.5086923 L108.1025,11.5176923 L116.5435,11.5176923 C116.3365,10.9196923 116.1065,10.3676923 115.8535,9.86169231 L118.4295,9.44769231 C118.6825,10.0686923 118.9125,10.7586923 119.1425,11.5176923 L127.3765,11.5176923 L127.3765,16.4626923 L125.3755,16.4626923 L125.3755,18.4406923 L118.9585,18.4406923 L118.9585,21.6606923 L124.6165,21.6606923 L124.6165,23.9146923 L118.9585,23.9146923 L118.9585,28.0316923 L123.1215,28.0316923 C122.5695,27.1806923 121.9025,26.2606923 121.0975,25.2716923 L122.9145,24.1446923 C123.9265,25.3176923 124.7315,26.3526923 125.3065,27.2266923 L124.1335,28.0316923 L127.4225,28.0316923 L127.4225,30.2626923 L108.0795,30.2626923 L108.0795,28.0316923 L116.5205,28.0316923 L116.5205,23.9146923 L110.7245,23.9146923 L110.7245,21.6606923 L116.5205,21.6606923 L116.5205,18.4406923 Z M110.5405,16.1866923 L124.9615,16.1866923 L124.9615,13.8406923 L110.5405,13.8406923 L110.5405,16.1866923 Z" id="链证宝" fill="#FFFFFF" fill-rule="nonzero"></path>
                    <g id="编组-9" transform="translate(0.000000, -0.000000)">
                        <g transform="translate(30.176471, 24.097561) rotate(-148.000000) translate(-30.176471, -24.097561) translate(7.823529, 7.414634)">
                            <path d="M17.0908164,18.4220778 C22.8899282,25.6254778 27.556406,29.2271777 31.0902496,29.2271777 C30.5209284,30.5244083 28.1558381,31.5568546 23.9949789,32.3245168 C16.5063252,30.5803307 11.420435,27.8272109 8.73730842,24.0651577 C11.4643158,22.2841136 14.2488185,20.4030869 17.0908164,18.4220778 Z" id="路径-15" fill="url(#linearGradient-1)"></path>
                            <path d="M31.0865684,9.5405366 C34.3314847,23.9824134 31.6129386,31.4928532 22.9309301,32.071856 C23.1917809,32.1539122 34.5738927,35.2015156 39.6797916,29.4831372 C43.7961279,24.7461464 45.1105789,18.0051728 43.6231448,9.2602166 C42.2813384,7.2478343 39.737233,6.54801764 35.9908284,7.16076664 C32.9856605,7.70849274 31.3509072,8.50174939 31.0865684,9.5405366 Z" id="路径-14" fill="url(#linearGradient-2)"></path>
                            <path d="M30.1163166,28.6823282 C29.8707827,29.2312525 29.5828617,29.5448304 29.2525537,29.623062 C23.50924,30.9833326 17.1035831,29.0027576 11.920421,24.9680407 L18.2940426,19.7845917 C20.6295979,22.3536076 22.5109915,24.3669441 23.9382235,25.8246012 C25.3654555,27.2822582 27.4248199,28.2348339 30.1163166,28.6823282 Z" id="路径-17" fill="url(#linearGradient-3)"></path>
                            <path d="M22.9311892,32.071856 C26.297475,31.9131903 28.7904551,30.6061293 30.4101298,28.1506729 C31.5511212,26.0133707 32.5618971,22.5084812 32.3872764,18.315447 C32.2311469,14.3111305 31.2497261,11.4999835 31.0865684,9.5405366 C31.1963731,9.14503377 33.8910851,8.47896505 36.8159724,8.41811747 C39.6572975,8.35900828 42.7167263,8.89629836 43.7748993,9.11319643 C41.2946559,11.0049775 39.7421136,13.7448527 39.1172724,17.3328219 C37.9965376,23.7683165 37.4330201,28.25126 33.9839794,31.2777614 C31.1999573,33.0227516 27.515694,33.2874498 22.9311892,32.071856 Z" id="路径-10" fill="url(#linearGradient-4)"></path>
                            <path d="M14.4515647,16.7437513 C19.2263914,11.2407063 24.2454705,7.6372709 29.5088019,5.93344501 C37.7235796,4.87850039 42.4495559,6.15327152 43.6867308,9.75775841 C37.4175909,6.9674976 30.91294,8.23887561 24.172778,13.5718924 C22.5318622,14.7885549 18.0676987,21.0932976 13.5299328,24.5524476 C11.343553,26.58223 4.35754302,26.8496748 0.312915607,21.7936026 C-0.0382246201,21.2695441 4.81525585,24.0395684 9.01629742,21.2333987 C10.7753474,19.9963135 12.5871032,18.4997644 14.4515647,16.7437513 Z" id="路径-11" fill="url(#linearGradient-5)"></path>
                            <path d="M0.312915607,21.7936026 C3.44727765,23.4299167 6.61125448,23.0516812 9.8048461,20.6588963 C14.5952335,17.0697188 20.47652,10.9796746 22.8774957,9.46219811 C28.6764857,6.47109572 35.0001449,4.81275526 43.8758064,9.86108931 C44.0473663,6.7450902 43.7584717,-2.33062864 29.266644,1.45452288 C21.4274424,3.50648169 14.9516509,10.4525293 14.5291853,10.6692433 C14.2855785,10.7942073 11.1627084,14.3168191 4.25007777,19.7739401 C2.97798325,20.6983079 1.66559586,21.3715287 0.312915607,21.7936026 Z" id="路径-12" fill="url(#linearGradient-6)"></path>
                        </g>
                    </g>
                </g>
            </g>
        </g>
    </g>
</svg>