<?xml version="1.0" encoding="UTF-8"?>
<svg width="114px" height="39px" viewBox="0 0 114 39" version="1.1" xmlns="http://www.w3.org/2000/svg" xmlns:xlink="http://www.w3.org/1999/xlink">
    <!-- Generator: Sketch 57 (83077) - https://sketch.com -->
    <title>切片</title>
    <desc>Created with Sketch.</desc>
    <defs>
        <linearGradient x1="80.3906646%" y1="74.1597264%" x2="13.5274939%" y2="35.7055798%" id="linearGradient-1">
            <stop stop-color="#66C3F9" offset="0%"></stop>
            <stop stop-color="#492D7C" offset="100%"></stop>
        </linearGradient>
        <linearGradient x1="65.0342237%" y1="9.90803603%" x2="50%" y2="100%" id="linearGradient-2">
            <stop stop-color="#C14786" offset="0%"></stop>
            <stop stop-color="#A2D2FF" offset="71.0546027%"></stop>
            <stop stop-color="#234084" offset="100%"></stop>
        </linearGradient>
        <linearGradient x1="19.3559529%" y1="40.988396%" x2="73.8659545%" y2="61.9854428%" id="linearGradient-3">
            <stop stop-color="#24386F" offset="0%"></stop>
            <stop stop-color="#46A7E5" offset="100%"></stop>
        </linearGradient>
        <linearGradient x1="66.373931%" y1="9.90803603%" x2="50%" y2="100%" id="linearGradient-4">
            <stop stop-color="#DF5299" offset="0%"></stop>
            <stop stop-color="#ACEBFF" offset="70.9089949%"></stop>
            <stop stop-color="#6A81FB" offset="100%"></stop>
        </linearGradient>
        <linearGradient x1="85.9121817%" y1="39.5242214%" x2="7.77291796%" y2="58.9250601%" id="linearGradient-5">
            <stop stop-color="#FB6967" offset="0%"></stop>
            <stop stop-color="#FBA5B2" offset="56.4453125%"></stop>
            <stop stop-color="#FB5F57" offset="100%"></stop>
        </linearGradient>
        <linearGradient x1="72.6288351%" y1="36.2776486%" x2="3.41856575%" y2="66.2653253%" id="linearGradient-6">
            <stop stop-color="#F95D88" offset="0%"></stop>
            <stop stop-color="#F4566D" offset="28.5655509%"></stop>
            <stop stop-color="#E75449" offset="100%"></stop>
        </linearGradient>
    </defs>
    <g id="页面-1" stroke="none" stroke-width="1" fill="none" fill-rule="evenodd">
        <g id="合同管理" transform="translate(-10.000000, -10.000000)">
            <g id="top">
                <g id="链证宝1">
                    <g transform="translate(10.000000, 10.000000)">
                        <g>
                            <path d="M66.68,23.4261538 L70.16,23.4261538 L70.16,21.5861538 L67.1,21.5861538 L66.7,19.8661538 C67.26,18.9261538 67.8,17.7461538 68.28,16.3061538 L66.56,16.3061538 L66.56,14.4861538 L68.84,14.4861538 C69.02,13.8261538 69.2,13.1461538 69.36,12.4461538 L71.2,12.8861538 C71.06,13.4461538 70.92,13.9661538 70.78,14.4861538 L74.28,14.4861538 L74.28,16.3061538 L70.22,16.3061538 C69.78,17.6061538 69.32,18.7661538 68.82,19.7661538 L70.16,19.7661538 L70.16,17.2861538 L72.08,17.2861538 L72.08,19.7661538 L74.08,19.7661538 L74.08,21.5861538 L72.08,21.5861538 L72.08,23.4261538 L74.66,23.4261538 L74.66,25.2661538 L72.08,25.2661538 L72.08,28.1461538 L70.16,28.1461538 L70.16,25.2661538 L66.68,25.2661538 L66.68,23.4261538 Z M64.1,12.7261538 C64.94,13.9661538 65.6,15.0261538 66.08,15.9461538 L64.52,17.0261538 C64.04,16.0261538 63.38,14.9061538 62.58,13.6861538 L64.1,12.7261538 Z M71.66,28.7261538 C72.78,28.7261538 73.86,28.7061538 74.86,28.6661538 L74.32,30.6261538 L71.5,30.6261538 C70.9,30.6261538 70.3,30.6061538 69.7,30.5861538 C68.82,30.5661538 68,30.4461538 67.28,30.2261538 C66.6,29.9861538 66.02,29.6061538 65.56,29.0861538 C65.3,28.8061538 65.08,28.6861538 64.9,28.6861538 C64.64,28.6861538 64.12,29.4261538 63.32,30.9461538 L62.12,29.3661538 C62.86,28.2061538 63.5,27.4061538 64.04,27.0061538 L64.04,20.7861538 L62.72,20.7861538 L62.72,18.9461538 L65.94,18.9461538 L65.94,27.1861538 C66.3,27.6461538 66.78,28.0061538 67.34,28.2861538 C67.94,28.4861538 68.62,28.6261538 69.38,28.6861538 C70.14,28.7061538 70.9,28.7261538 71.66,28.7261538 Z M58.14,12.4861538 L60.12,12.9061538 C60,13.4661538 59.88,13.9861538 59.76,14.4861538 L62.38,14.4861538 L62.38,16.4661538 L59.2,16.4661538 C58.96,17.2061538 58.7,17.9061538 58.42,18.5461538 L62.12,18.5461538 L62.12,20.4061538 L60.72,20.4061538 L60.72,22.2861538 L62.68,22.2861538 L62.68,24.2061538 L60.72,24.2061538 L60.72,27.9461538 C61.16,27.6661538 61.62,27.3461538 62.06,26.9661538 L62.42,28.7661538 C61.42,29.4661538 60.26,30.0461538 58.94,30.5061538 L58.16,28.7861538 C58.52,28.6261538 58.72,28.3661538 58.72,28.0061538 L58.72,24.2061538 L56.72,24.2061538 L56.72,22.2861538 L58.72,22.2861538 L58.72,20.4061538 L58,20.4061538 L58,19.4661538 L57.72,20.0261538 L56.08,18.9861538 C57.06,16.9461538 57.74,14.7861538 58.14,12.4861538 Z M88.48,15.1861538 L83.06,15.1861538 L83.06,13.1461538 L94.46,13.1461538 L94.46,15.1861538 L90.6,15.1861538 L90.6,20.1261538 L94.18,20.1261538 L94.18,22.0661538 L90.6,22.0661538 L90.6,28.2261538 L94.88,28.2261538 L94.88,30.2661538 L82.46,30.2661538 L82.46,28.2261538 L84.28,28.2261538 L84.28,18.0861538 L86.32,18.0861538 L86.32,28.2261538 L88.48,28.2261538 L88.48,15.1861538 Z M79.12,12.5661538 C80.36,13.5461538 81.4,14.5061538 82.28,15.4661538 L80.86,16.9261538 C80.1,15.9861538 79.04,14.9861538 77.66,13.9461538 L79.12,12.5661538 Z M76.26,18.3261538 L80.96,18.3261538 L80.96,26.3861538 C81.48,25.9061538 82.02,25.4061538 82.58,24.8461538 L83.12,27.0461538 C81.9,28.2061538 80.6,29.2661538 79.24,30.2061538 L78.44,28.3061538 C78.8,28.0261538 78.98,27.6661538 78.98,27.2261538 L78.98,20.3261538 L76.26,20.3261538 L76.26,18.3261538 Z M104.42,20.2661538 L98.92,20.2661538 L98.92,18.5861538 L97.1,18.5861538 L97.1,14.2461538 L104.44,14.2461538 C104.26,13.7261538 104.06,13.2461538 103.84,12.8061538 L106.08,12.4461538 C106.3,12.9861538 106.5,13.5861538 106.7,14.2461538 L113.86,14.2461538 L113.86,18.5461538 L112.12,18.5461538 L112.12,20.2661538 L106.54,20.2661538 L106.54,23.0661538 L111.46,23.0661538 L111.46,25.0261538 L106.54,25.0261538 L106.54,28.6061538 L110.16,28.6061538 C109.68,27.8661538 109.1,27.0661538 108.4,26.2061538 L109.98,25.2261538 C110.86,26.2461538 111.56,27.1461538 112.06,27.9061538 L111.04,28.6061538 L113.9,28.6061538 L113.9,30.5461538 L97.08,30.5461538 L97.08,28.6061538 L104.42,28.6061538 L104.42,25.0261538 L99.38,25.0261538 L99.38,23.0661538 L104.42,23.0661538 L104.42,20.2661538 Z M99.22,18.3061538 L111.76,18.3061538 L111.76,16.2661538 L99.22,16.2661538 L99.22,18.3061538 Z" id="链证宝" fill="#333333" fill-rule="nonzero"></path>
                            <g id="编组-9" transform="translate(0.000000, 0.538462)">
                                <g transform="translate(27.000000, 24.097561) rotate(-148.000000) translate(-27.000000, -24.097561) translate(7.000000, 7.414634)">
                                    <path d="M15.2917831,18.4220778 C20.4804621,25.6254778 24.6557317,29.2271777 27.8175917,29.2271777 C27.3081991,30.5244083 25.1920657,31.5568546 21.4691917,32.3245168 C14.7688172,30.5803307 10.2182839,27.8272109 7.81759175,24.0651577 C10.2575458,22.2841136 12.7489429,20.4030869 15.2917831,18.4220778 Z" id="路径-15" fill="url(#linearGradient-1)"></path>
                                    <path d="M27.8142981,9.5405366 C30.7176442,23.9824134 28.2852609,31.4928532 20.517148,32.071856 C20.7505408,32.1539122 30.9345356,35.2015156 35.5029715,29.4831372 C39.1860091,24.7461464 40.3620969,18.0051728 39.0312348,9.2602166 C37.8306712,7.2478343 35.5543663,6.54801764 32.2023201,7.16076664 C29.5134857,7.70849274 28.0508117,8.50174939 27.8142981,9.5405366 Z" id="路径-14" fill="url(#linearGradient-2)"></path>
                                    <path d="M26.946178,28.6823282 C26.7264898,29.2312525 26.4688763,29.5448304 26.1733375,29.623062 C21.0345831,30.9833326 15.3032059,29.0027576 10.6656398,24.9680407 L16.3683539,19.7845917 C18.4580613,22.3536076 20.1414135,24.3669441 21.4184105,25.8246012 C22.6954076,27.2822582 24.5379967,28.2348339 26.946178,28.6823282 Z" id="路径-17" fill="url(#linearGradient-3)"></path>
                                    <path d="M20.5173798,32.071856 C23.5293197,31.9131903 25.7598809,30.6061293 27.2090635,28.1506729 C28.2299505,26.0133707 29.134329,22.5084812 28.9780895,18.315447 C28.8383946,14.3111305 27.9602813,11.4999835 27.8142981,9.5405366 C27.9125444,9.14503377 30.3236024,8.47896505 32.9406069,8.41811747 C35.4828451,8.35900828 38.2202288,8.89629836 39.1670152,9.11319643 C36.94785,11.0049775 35.5587333,13.7448527 34.9996648,17.3328219 C33.996902,23.7683165 33.4927022,28.25126 30.4067184,31.2777614 C27.9157513,33.0227516 24.6193051,33.2874498 20.5173798,32.071856 Z" id="路径-10" fill="url(#linearGradient-4)"></path>
                                    <path d="M12.9303474,16.7437513 C17.2025608,11.2407063 21.6933157,7.6372709 26.4026122,5.93344501 C33.7526765,4.87850039 37.9811816,6.15327152 39.0881275,9.75775841 C33.4788971,6.9674976 27.6589463,8.23887561 21.628275,13.5718924 C20.1600872,14.7885549 16.1658357,21.0932976 12.1057294,24.5524476 C10.1494948,26.58223 3.89885428,26.8496748 0.279977122,21.7936026 C-0.0342009759,21.2695441 4.30838681,24.0395684 8.06721348,21.2333987 C9.64110033,19.9963135 11.262145,18.4997644 12.9303474,16.7437513 Z" id="路径-11" fill="url(#linearGradient-5)"></path>
                                    <path d="M0.279977122,21.7936026 C3.08440631,23.4299167 5.91533295,23.0516812 8.77275704,20.6588963 C13.0588932,17.0697188 18.3210968,10.9796746 20.4693382,9.46219811 C25.6579083,6.47109572 31.3159191,4.81275526 39.2573004,9.86108931 C39.4108014,6.7450902 39.1523168,-2.33062864 26.1859446,1.45452288 C19.1719221,3.50648169 13.3777929,10.4525293 12.9997974,10.6692433 C12.7818334,10.7942073 9.98768646,14.3168191 3.80270117,19.7739401 C2.66451133,20.6983079 1.49026998,21.3715287 0.279977122,21.7936026 Z" id="路径-12" fill="url(#linearGradient-6)"></path>
                                </g>
                            </g>
                        </g>
                    </g>
                </g>
            </g>
        </g>
    </g>
</svg>